Coordinates
version=1
nRows=13
nColumns=40
inDegrees=yes

Units are S.I. units (second, meters, Newtons, ...)
If the header above contains a line with 'inDegrees', this indicates whether rotational values are in degrees (yes) or radians (no).

endheader
time	pelvis_tilt	pelvis_list	pelvis_rotation	pelvis_tx	pelvis_ty	pelvis_tz	hip_flexion_r	hip_adduction_r	hip_rotation_r	knee_angle_r	knee_angle_r_beta	ankle_angle_r	subtalar_angle_r	mtp_angle_r	hip_flexion_l	hip_adduction_l	hip_rotation_l	knee_angle_l	knee_angle_l_beta	ankle_angle_l	subtalar_angle_l	mtp_angle_l	lumbar_extension	lumbar_bending	lumbar_rotation	arm_flex_r	arm_add_r	arm_rot_r	elbow_flex_r	pro_sup_r	wrist_flex_r	wrist_dev_r	arm_flex_l	arm_add_l	arm_rot_l	elbow_flex_l	pro_sup_l	wrist_flex_l	wrist_dev_l
      2.43500000	     -7.85947723	      4.49687034	      2.75278612	     -0.42048544	      0.89089895	     -0.72086804	     42.00410734	     -2.72658380	     -7.08147767	     55.53451904	      0.96926021	      8.26109018	      0.00000000	      0.00000000	     57.97345484	      0.06571485	     -3.76361960	      9.29046403	      0.16214919	    -21.16598324	      0.00000000	      0.00000000	    -11.25005211	     -2.77472700	     -3.42104601	     89.94681826	     -3.12818917	     19.18359575	     42.99544400	     81.24528370	      0.00000000	      0.00000000	     89.93751762	    -11.85499139	     16.49867549	     45.45621260	     84.23100844	      0.00000000	      0.00000000
      2.44000000	     -7.86909861	      4.55919750	      2.68853690	     -0.42085913	      0.89006121	     -0.72072549	     42.16554696	     -2.70808092	     -6.92074249	     55.76453209	      0.97327469	      8.36696498	      0.00000000	      0.00000000	     57.95245653	      0.05250279	     -3.56523967	      9.27397573	      0.16186141	    -21.12402821	      0.00000000	      0.00000000	    -11.32355352	     -2.85722316	     -3.32041033	     89.94702093	     -3.19643761	     19.04831180	     42.98784779	     81.95271885	      0.00000000	      0.00000000	     89.93787173	    -11.76674135	     16.47926613	     45.53131674	     84.20116060	      0.00000000	      0.00000000
      2.44500000	     -7.91305715	      4.56508380	      2.66475822	     -0.42126209	      0.88917306	     -0.72065799	     42.35410631	     -2.69988380	     -6.89011737	     55.98341968	      0.97709500	      8.53720738	      0.00000000	      0.00000000	     57.96247927	      0.03138165	     -3.33654521	      9.21755566	      0.16087670	    -21.25404498	      0.00000000	      0.00000000	    -11.33933763	     -2.85412132	     -3.31793703	     89.94737560	     -3.15755943	     19.12920671	     43.06902547	     81.37984425	      0.00000000	      0.00000000	     89.93757125	    -11.79025289	     16.42514516	     45.47040726	     83.69483218	      0.00000000	      0.00000000
      2.45000000	     -7.93537265	      4.56908971	      2.60577143	     -0.42161441	      0.88827453	     -0.72053258	     42.53352697	     -2.65115336	     -6.79941392	     56.21395914	      0.98111867	      8.55049810	      0.00000000	      0.00000000	     57.93453930	     -0.01931376	     -3.15133037	      9.17055426	      0.16005637	    -21.19604742	      0.00000000	      0.00000000	    -11.38528070	     -2.87632472	     -3.22150974	     89.94753167	     -3.19749817	     19.15510035	     42.98322239	     81.79326673	      0.00000000	      0.00000000	     89.93805854	    -11.70430894	     16.26085215	     45.62913881	     84.24635859	      0.00000000	      0.00000000
      2.45500000	     -7.94018250	      4.54464074	      2.57310793	     -0.42200522	      0.88742236	     -0.72036408	     42.67826132	     -2.57841265	     -6.72547754	     56.42693080	      0.98483573	      8.67483787	      0.00000000	      0.00000000	     57.91531852	     -0.07682462	     -2.96628617	      9.17846113	      0.16019437	    -21.14545929	      0.00000000	      0.00000000	    -11.44178516	     -2.84335767	     -3.19161293	     89.94747222	     -3.18625399	     19.02876479	     43.11580117	     81.55180473	      0.00000000	      0.00000000	     89.93817981	    -11.74444198	     16.25614403	     45.56396534	     84.07684961	      0.00000000	      0.00000000
      2.46000000	     -7.98042814	      4.52250880	      2.54733873	     -0.42236567	      0.88656548	     -0.72027588	     42.85740420	     -2.53721016	     -6.70105434	     56.63967737	      0.98854886	      8.78632066	      0.00000000	      0.00000000	     57.89546893	     -0.11459521	     -2.77443793	      9.10678958	      0.15894346	    -21.20442759	      0.00000000	      0.00000000	    -11.46101144	     -2.81174467	     -3.18106110	     89.94763091	     -3.17145271	     19.13623160	     43.14116685	     80.85985486	      0.00000000	      0.00000000	     89.93851429	    -11.73286899	     16.06306125	     45.62579655	     84.51375792	      0.00000000	      0.00000000
      2.46500000	     -8.01953970	      4.51375314	      2.50777650	     -0.42277059	      0.88564390	     -0.72016858	     43.04330011	     -2.49578541	     -6.64073804	     56.84963893	      0.99221338	      8.90452128	      0.00000000	      0.00000000	     57.89763100	     -0.16433639	     -2.67247419	      9.07210146	      0.15833804	    -21.25649739	      0.00000000	      0.00000000	    -11.48228118	     -2.81680431	     -3.09332098	     89.94783310	     -3.21865817	     18.93588259	     43.13044361	     81.94278917	      0.00000000	      0.00000000	     89.93872958	    -11.65124369	     15.99433225	     45.61847154	     84.18049182	      0.00000000	      0.00000000
      2.47000000	     -8.04242950	      4.49057787	      2.52534031	     -0.42316303	      0.88477798	     -0.72011024	     43.19449508	     -2.48980231	     -6.65845448	     57.04162629	      0.99556419	      8.96603049	      0.00000000	      0.00000000	     57.88185829	     -0.18318076	     -2.50340018	      9.06427516	      0.15820145	    -21.30576301	      0.00000000	      0.00000000	    -11.54121538	     -2.78081578	     -3.09789378	     89.94797827	     -3.21196098	     18.88613671	     43.23361325	     81.62693838	      0.00000000	      0.00000000	     89.93881080	    -11.65845500	     15.97543751	     45.60886237	     84.11615615	      0.00000000	      0.00000000
      2.47500000	     -8.13507283	      4.51964249	      2.49256597	     -0.42356488	      0.88382307	     -0.72006525	     43.45231613	     -2.49438857	     -6.59277621	     57.29243279	      0.99994159	      9.08666057	      0.00000000	      0.00000000	     57.94270087	     -0.21390454	     -2.53591655	      9.06685223	      0.15824642	    -21.43617401	      0.00000000	      0.00000000	    -11.50872677	     -2.80553443	     -3.05975668	     89.94817172	     -3.23727733	     19.40823283	     43.28939895	     79.75981745	      0.00000000	      0.00000000	     89.93920874	    -11.65586871	     16.12654176	     45.72809724	     82.02789770	      0.00000000	      0.00000000
      2.48000000	     -8.16947809	      4.48718077	      2.50465543	     -0.42394594	      0.88289159	     -0.71998637	     43.61158964	     -2.45350364	     -6.57597850	     57.48791290	      1.00335336	      9.25961839	      0.00000000	      0.00000000	     57.96436724	     -0.24573674	     -2.42248612	      9.11770541	      0.15913398	    -21.44197529	      0.00000000	      0.00000000	    -11.53848425	     -2.76125131	     -3.07214725	     89.94830126	     -3.15461983	     18.93527254	     43.26164826	     81.01405671	      0.00000000	      0.00000000	     89.93901530	    -11.60828440	     15.78663859	     45.62953285	     83.87912880	      0.00000000	      0.00000000
      2.48500000	     -8.23545553	      4.54964668	      2.47636897	     -0.42444526	      0.88197918	     -0.71993712	     43.85187825	     -2.48593920	     -6.48716413	     57.73767236	      1.00771249	      9.31638067	      0.00000000	      0.00000000	     58.03501088	     -0.25345424	     -2.59333407	      9.19779047	      0.16053173	    -21.63983547	      0.00000000	      0.00000000	    -11.55735570	     -2.84055844	     -2.95484495	     89.94856292	     -3.34001996	     19.40164199	     43.39401437	     78.79819346	      0.00000000	      0.00000000	     89.93967311	    -11.51930256	     16.11384468	     45.73473438	     81.20289880	      0.00000000	      0.00000000
      2.49000000	     -8.22400816	      4.51889545	      2.49001105	     -0.42483026	      0.88117099	     -0.71986543	     43.96242765	     -2.45082234	     -6.46729310	     57.93511766	      1.01115856	      9.42035296	      0.00000000	      0.00000000	     58.01597774	     -0.29031551	     -2.61131083	      9.26116492	      0.16163782	    -21.71952714	      0.00000000	      0.00000000	    -11.65192603	     -2.76886872	     -3.05471840	     89.94842968	     -3.21257994	     18.98457706	     43.48540141	     81.77739797	      0.00000000	      0.00000000	     89.94017192	    -11.56603368	     15.54541150	     45.73060770	     83.81228231	      0.00000000	      0.00000000
      2.49500000	     -8.29117023	      4.50381276	      2.52018913	     -0.42522051	      0.88019704	     -0.71982620	     44.16706712	     -2.46792034	     -6.52570477	     58.13747045	      1.01469028	      9.51184848	      0.00000000	      0.00000000	     58.07832038	     -0.29563882	     -2.62172885	      9.32388416	      0.16273248	    -21.85655738	      0.00000000	      0.00000000	    -11.64903277	     -2.76096940	     -3.02288026	     89.94901199	     -3.22809470	     18.78543968	     43.39628201	     82.31204040	      0.00000000	      0.00000000	     89.93980954	    -11.47365628	     15.52277472	     45.72211929	     84.03373753	      0.00000000	      0.00000000
